solid OpenSCAD_Model
  facet normal 0 1 -0
    outer loop
      vertex 28.5 0 0
      vertex 28.4652 0 4
      vertex 28.5 0 4
    endloop
  endfacet
  facet normal 0 1 0
    outer loop
      vertex 28.4652 0 4
      vertex 28.5 0 0
      vertex -28.4652 0 4
    endloop
  endfacet
  facet normal 0 1 0
    outer loop
      vertex -28.5 0 0
      vertex -28.4652 0 4
      vertex 28.5 0 0
    endloop
  endfacet
  facet normal 0 1 0
    outer loop
      vertex -28.4652 0 4
      vertex -28.5 0 0
      vertex -28.5 0 4
    endloop
  endfacet
  facet normal 0 1 0
    outer loop
      vertex -6.75 0 16.5
      vertex -3.24759 0 18.375
      vertex -3.75 0 16.5
    endloop
  endfacet
  facet normal 0 1 0
    outer loop
      vertex -3.24759 0 18.375
      vertex -6.75 0 16.5
      vertex -7.625 0 18.0155
    endloop
  endfacet
  facet normal 0 1 0
    outer loop
      vertex -3.24759 0 14.625
      vertex -6.75 0 16.5
      vertex -3.75 0 16.5
    endloop
  endfacet
  facet normal 0 1 0
    outer loop
      vertex -1.875 0 13.2524
      vertex -7.625 0 14.9845
      vertex -3.24759 0 14.625
    endloop
  endfacet
  facet normal 0 1 0
    outer loop
      vertex -6.75 0 16.5
      vertex -3.24759 0 14.625
      vertex -7.625 0 14.9845
    endloop
  endfacet
  facet normal 0 1 0
    outer loop
      vertex 14 0 24.7833
      vertex 0 0 20.25
      vertex -14 0 24.7833
    endloop
  endfacet
  facet normal 0 1 0
    outer loop
      vertex 14 0 24.7833
      vertex 1.875 0 19.7476
      vertex 0 0 20.25
    endloop
  endfacet
  facet normal 0 1 -0
    outer loop
      vertex 7.625 0 18.0155
      vertex 1.875 0 19.7476
      vertex 14 0 24.7833
    endloop
  endfacet
  facet normal 0 1 0
    outer loop
      vertex 7.625 0 18.0155
      vertex 14 0 24.7833
      vertex 9.375 0 18.0155
    endloop
  endfacet
  facet normal 0 1 0
    outer loop
      vertex 14 0 24.7833
      vertex 10.25 0 16.5
      vertex 9.375 0 18.0155
    endloop
  endfacet
  facet normal 0 1 0
    outer loop
      vertex 1.875 0 13.2524
      vertex 7.625 0 14.9845
      vertex 9.375 0 14.9845
    endloop
  endfacet
  facet normal 0 1 0
    outer loop
      vertex 7.625 0 14.9845
      vertex 1.875 0 13.2524
      vertex 3.24759 0 14.625
    endloop
  endfacet
  facet normal 0 1 0
    outer loop
      vertex 28.4652 0 4
      vertex 1.875 0 13.2524
      vertex 9.375 0 14.9845
    endloop
  endfacet
  facet normal 0 1 0
    outer loop
      vertex 1.875 0 13.2524
      vertex 28.4652 0 4
      vertex 0 0 12.75
    endloop
  endfacet
  facet normal 0 1 0
    outer loop
      vertex 10.25 0 16.5
      vertex 28.4652 0 4
      vertex 9.375 0 14.9845
    endloop
  endfacet
  facet normal 0 1 0
    outer loop
      vertex 28.4652 0 4
      vertex 10.25 0 16.5
      vertex 14 0 24.7833
    endloop
  endfacet
  facet normal 0 1 -0
    outer loop
      vertex -1.875 0 19.7476
      vertex -14 0 24.7833
      vertex 0 0 20.25
    endloop
  endfacet
  facet normal 0 1 0
    outer loop
      vertex -7.625 0 18.0155
      vertex -1.875 0 19.7476
      vertex -3.24759 0 18.375
    endloop
  endfacet
  facet normal 0 1 0
    outer loop
      vertex -1.875 0 19.7476
      vertex -7.625 0 18.0155
      vertex -14 0 24.7833
    endloop
  endfacet
  facet normal 0 1 -0
    outer loop
      vertex -9.375 0 18.0155
      vertex -14 0 24.7833
      vertex -7.625 0 18.0155
    endloop
  endfacet
  facet normal 0 1 -0
    outer loop
      vertex -10.25 0 16.5
      vertex -14 0 24.7833
      vertex -9.375 0 18.0155
    endloop
  endfacet
  facet normal 0 1 0
    outer loop
      vertex -7.625 0 14.9845
      vertex -1.875 0 13.2524
      vertex -9.375 0 14.9845
    endloop
  endfacet
  facet normal 0 1 0
    outer loop
      vertex -28.4652 0 4
      vertex -1.875 0 13.2524
      vertex 0 0 12.75
    endloop
  endfacet
  facet normal 0 1 0
    outer loop
      vertex -28.4652 0 4
      vertex 0 0 12.75
      vertex 28.4652 0 4
    endloop
  endfacet
  facet normal 0 1 0
    outer loop
      vertex -10.25 0 16.5
      vertex -28.4652 0 4
      vertex -14 0 24.7833
    endloop
  endfacet
  facet normal 0 1 0
    outer loop
      vertex -9.375 0 14.9845
      vertex -28.4652 0 4
      vertex -10.25 0 16.5
    endloop
  endfacet
  facet normal 0 1 0
    outer loop
      vertex -1.875 0 13.2524
      vertex -28.4652 0 4
      vertex -9.375 0 14.9845
    endloop
  endfacet
  facet normal 0 1 0
    outer loop
      vertex 1.875 0 19.7476
      vertex 7.625 0 18.0155
      vertex 3.24759 0 18.375
    endloop
  endfacet
  facet normal 0 1 -0
    outer loop
      vertex 6.75 0 16.5
      vertex 3.24759 0 18.375
      vertex 7.625 0 18.0155
    endloop
  endfacet
  facet normal 0 1 0
    outer loop
      vertex 6.75 0 16.5
      vertex 3.75 0 16.5
      vertex 3.24759 0 18.375
    endloop
  endfacet
  facet normal 0 1 0
    outer loop
      vertex 3.24759 0 14.625
      vertex 6.75 0 16.5
      vertex 7.625 0 14.9845
    endloop
  endfacet
  facet normal 0 1 0
    outer loop
      vertex 6.75 0 16.5
      vertex 3.24759 0 14.625
      vertex 3.75 0 16.5
    endloop
  endfacet
  facet normal 0.207912 0 0.978148
    outer loop
      vertex 1.72472 -9.53674e-007 32.9096
      vertex 5.09878 -16 32.1924
      vertex 5.09878 -9.53674e-007 32.1924
    endloop
  endfacet
  facet normal 0.207912 0 0.978148
    outer loop
      vertex 5.09878 -16 32.1924
      vertex 1.72472 -9.53674e-007 32.9096
      vertex 1.72472 -16 32.9096
    endloop
  endfacet
  facet normal -1.1516e-006 1 6.64878e-007
    outer loop
      vertex -14 -7.62734e-007 24.7833
      vertex -13.3488 -9.53674e-007 26.1985
      vertex -13.9788 -7.3836e-007 24.7833
    endloop
  endfacet
  facet normal -1.1516e-006 1 6.64879e-007
    outer loop
      vertex -13.3488 -9.53674e-007 26.1985
      vertex -14 -7.62734e-007 24.7833
      vertex -14.9726 -9.53674e-007 23.3859
    endloop
  endfacet
  facet normal -1 0 0
    outer loop
      vertex -16.5 -14 4
      vertex -16.5 -2 16.5
      vertex -16.5 -2 4
    endloop
  endfacet
  facet normal -1 -0 0
    outer loop
      vertex -16.5 -2 16.5
      vertex -16.5 -14 4
      vertex -16.5 -14 16.5
    endloop
  endfacet
  facet normal 0 -1 0
    outer loop
      vertex -28.5 -16 0
      vertex -28.4652 -16 4
      vertex -28.5 -16 4
    endloop
  endfacet
  facet normal 0 -1 -0
    outer loop
      vertex -28.4652 -16 4
      vertex -28.5 -16 0
      vertex 28.4652 -16 4
    endloop
  endfacet
  facet normal 0 -1 0
    outer loop
      vertex 28.5 -16 0
      vertex 28.4652 -16 4
      vertex -28.5 -16 0
    endloop
  endfacet
  facet normal 0 -1 0
    outer loop
      vertex 28.4652 -16 4
      vertex 28.5 -16 0
      vertex 28.5 -16 4
    endloop
  endfacet
  facet normal 0 -1 0
    outer loop
      vertex -1.30661 -16 28.9315
      vertex -1.72472 -16 32.9096
      vertex -5.09878 -16 32.1924
    endloop
  endfacet
  facet normal 0 -1 0
    outer loop
      vertex -1.72472 -16 32.9096
      vertex -1.30661 -16 28.9315
      vertex 1.72472 -16 32.9096
    endloop
  endfacet
  facet normal 0 -1 0
    outer loop
      vertex -3.86271 -16 28.3882
      vertex -5.09878 -16 32.1924
      vertex -8.25 -16 30.7894
    endloop
  endfacet
  facet normal 0 -1 0
    outer loop
      vertex 1.30661 -16 28.9315
      vertex 1.72472 -16 32.9096
      vertex -1.30661 -16 28.9315
    endloop
  endfacet
  facet normal 0 -1 -0
    outer loop
      vertex 1.72472 -16 32.9096
      vertex 1.30661 -16 28.9315
      vertex 5.09878 -16 32.1924
    endloop
  endfacet
  facet normal 0 -1 0
    outer loop
      vertex -6.25 -16 27.3253
      vertex -8.25 -16 30.7894
      vertex -11.0407 -16 28.7619
    endloop
  endfacet
  facet normal 0 -1 0
    outer loop
      vertex -5.09878 -16 32.1924
      vertex -3.86271 -16 28.3882
      vertex -1.30661 -16 28.9315
    endloop
  endfacet
  facet normal 0 -1 0
    outer loop
      vertex -8.25 -16 30.7894
      vertex -6.25 -16 27.3253
      vertex -3.86271 -16 28.3882
    endloop
  endfacet
  facet normal 0 -1 0
    outer loop
      vertex -8.36413 -16 25.7893
      vertex -11.0407 -16 28.7619
      vertex -13.3488 -16 26.1985
    endloop
  endfacet
  facet normal 0 -1 0
    outer loop
      vertex -11.0407 -16 28.7619
      vertex -8.36413 -16 25.7893
      vertex -6.25 -16 27.3253
    endloop
  endfacet
  facet normal 0 -1 0
    outer loop
      vertex -13.3488 -16 26.1985
      vertex -10.1127 -16 23.8473
      vertex -8.36413 -16 25.7893
    endloop
  endfacet
  facet normal 0 -1 0
    outer loop
      vertex -14.9726 -16 23.3859
      vertex -10.1127 -16 23.8473
      vertex -13.3488 -16 26.1985
    endloop
  endfacet
  facet normal 0 -1 0
    outer loop
      vertex -14.9726 -16 23.3859
      vertex -11.4193 -16 21.5842
      vertex -10.1127 -16 23.8473
    endloop
  endfacet
  facet normal 0 -1 0
    outer loop
      vertex -14.9726 -16 23.3859
      vertex -12.2268 -16 19.0989
      vertex -11.4193 -16 21.5842
    endloop
  endfacet
  facet normal 0 -1 0
    outer loop
      vertex -14.9726 -16 23.3859
      vertex -12.5 -16 16.5
      vertex -12.2268 -16 19.0989
    endloop
  endfacet
  facet normal 0 -1 0
    outer loop
      vertex -28.4652 -16 4
      vertex -12.5 -16 16.5
      vertex -14.9726 -16 23.3859
    endloop
  endfacet
  facet normal 0 -1 -0
    outer loop
      vertex -1.30661 -16 4.06848
      vertex -28.4652 -16 4
      vertex 1.30661 -16 4.06848
    endloop
  endfacet
  facet normal 0 -1 -0
    outer loop
      vertex -3.86271 -16 4.61179
      vertex -28.4652 -16 4
      vertex -1.30661 -16 4.06848
    endloop
  endfacet
  facet normal 0 -1 -0
    outer loop
      vertex -6.25 -16 5.67468
      vertex -28.4652 -16 4
      vertex -3.86271 -16 4.61179
    endloop
  endfacet
  facet normal 0 -1 -0
    outer loop
      vertex -8.36413 -16 7.21069
      vertex -28.4652 -16 4
      vertex -6.25 -16 5.67468
    endloop
  endfacet
  facet normal 0 -1 -0
    outer loop
      vertex -10.1127 -16 9.15268
      vertex -28.4652 -16 4
      vertex -8.36413 -16 7.21069
    endloop
  endfacet
  facet normal 0 -1 -0
    outer loop
      vertex -11.4193 -16 11.4158
      vertex -28.4652 -16 4
      vertex -10.1127 -16 9.15268
    endloop
  endfacet
  facet normal 0 -1 -0
    outer loop
      vertex -12.2268 -16 13.9011
      vertex -28.4652 -16 4
      vertex -11.4193 -16 11.4158
    endloop
  endfacet
  facet normal 0 -1 -0
    outer loop
      vertex -12.5 -16 16.5
      vertex -28.4652 -16 4
      vertex -12.2268 -16 13.9011
    endloop
  endfacet
  facet normal 0 -1 0
    outer loop
      vertex 3.86271 -16 28.3882
      vertex 5.09878 -16 32.1924
      vertex 1.30661 -16 28.9315
    endloop
  endfacet
  facet normal 0 -1 -0
    outer loop
      vertex 5.09878 -16 32.1924
      vertex 3.86271 -16 28.3882
      vertex 8.25 -16 30.7894
    endloop
  endfacet
  facet normal 0 -1 0
    outer loop
      vertex 6.25 -16 27.3253
      vertex 8.25 -16 30.7894
      vertex 3.86271 -16 28.3882
    endloop
  endfacet
  facet normal 0 -1 -0
    outer loop
      vertex 8.25 -16 30.7894
      vertex 6.25 -16 27.3253
      vertex 11.0407 -16 28.7619
    endloop
  endfacet
  facet normal 0 -1 0
    outer loop
      vertex 8.36413 -16 25.7893
      vertex 11.0407 -16 28.7619
      vertex 6.25 -16 27.3253
    endloop
  endfacet
  facet normal 0 -1 -0
    outer loop
      vertex 11.0407 -16 28.7619
      vertex 8.36413 -16 25.7893
      vertex 13.3488 -16 26.1985
    endloop
  endfacet
  facet normal 0 -1 0
    outer loop
      vertex 10.1127 -16 23.8473
      vertex 13.3488 -16 26.1985
      vertex 8.36413 -16 25.7893
    endloop
  endfacet
  facet normal 0 -1 0
    outer loop
      vertex 10.1127 -16 23.8473
      vertex 14.9726 -16 23.3859
      vertex 13.3488 -16 26.1985
    endloop
  endfacet
  facet normal 0 -1 0
    outer loop
      vertex 11.4193 -16 21.5842
      vertex 14.9726 -16 23.3859
      vertex 10.1127 -16 23.8473
    endloop
  endfacet
  facet normal 0 -1 0
    outer loop
      vertex 12.2268 -16 19.0989
      vertex 14.9726 -16 23.3859
      vertex 11.4193 -16 21.5842
    endloop
  endfacet
  facet normal 0 -1 0
    outer loop
      vertex 12.5 -16 16.5
      vertex 14.9726 -16 23.3859
      vertex 12.2268 -16 19.0989
    endloop
  endfacet
  facet normal 0 -1 0
    outer loop
      vertex 28.4652 -16 4
      vertex 12.5 -16 16.5
      vertex 12.2268 -16 13.9011
    endloop
  endfacet
  facet normal 0 -1 0
    outer loop
      vertex 12.5 -16 16.5
      vertex 28.4652 -16 4
      vertex 14.9726 -16 23.3859
    endloop
  endfacet
  facet normal 0 -1 0
    outer loop
      vertex 11.4193 -16 11.4158
      vertex 28.4652 -16 4
      vertex 12.2268 -16 13.9011
    endloop
  endfacet
  facet normal 0 -1 0
    outer loop
      vertex 10.1127 -16 9.15268
      vertex 28.4652 -16 4
      vertex 11.4193 -16 11.4158
    endloop
  endfacet
  facet normal 0 -1 0
    outer loop
      vertex 8.36413 -16 7.21069
      vertex 28.4652 -16 4
      vertex 10.1127 -16 9.15268
    endloop
  endfacet
  facet normal 0 -1 0
    outer loop
      vertex 6.25 -16 5.67468
      vertex 28.4652 -16 4
      vertex 8.36413 -16 7.21069
    endloop
  endfacet
  facet normal 0 -1 0
    outer loop
      vertex 3.86271 -16 4.61179
      vertex 28.4652 -16 4
      vertex 6.25 -16 5.67468
    endloop
  endfacet
  facet normal 0 -1 0
    outer loop
      vertex 1.30661 -16 4.06848
      vertex 28.4652 -16 4
      vertex 3.86271 -16 4.61179
    endloop
  endfacet
  facet normal 0 -1 0
    outer loop
      vertex 28.4652 -16 4
      vertex 1.30661 -16 4.06848
      vertex -28.4652 -16 4
    endloop
  endfacet
  facet normal 0 0 -1
    outer loop
      vertex 28.5 -16 0
      vertex 24.25 -8 0
      vertex 28.5 0 0
    endloop
  endfacet
  facet normal 0 0 -1
    outer loop
      vertex 28.5 -16 0
      vertex 23.375 -9.51554 0
      vertex 24.25 -8 0
    endloop
  endfacet
  facet normal 0 0 -1
    outer loop
      vertex 28.5 -16 0
      vertex 21.625 -9.51554 0
      vertex 23.375 -9.51554 0
    endloop
  endfacet
  facet normal 0 0 -1
    outer loop
      vertex 21.625 -9.51554 0
      vertex -20.75 -8 0
      vertex 20.75 -8 0
    endloop
  endfacet
  facet normal 0 0 -1
    outer loop
      vertex -21.625 -9.51554 0
      vertex 21.625 -9.51554 0
      vertex 28.5 -16 0
    endloop
  endfacet
  facet normal 0 0 -1
    outer loop
      vertex 21.625 -9.51554 0
      vertex -21.625 -9.51554 0
      vertex -20.75 -8 0
    endloop
  endfacet
  facet normal 0 0 -1
    outer loop
      vertex -28.5 -16 0
      vertex -21.625 -9.51554 0
      vertex 28.5 -16 0
    endloop
  endfacet
  facet normal -0 0 -1
    outer loop
      vertex -23.375 -9.51554 0
      vertex -28.5 -16 0
      vertex -24.25 -8 0
    endloop
  endfacet
  facet normal -0 0 -1
    outer loop
      vertex -21.625 -9.51554 0
      vertex -28.5 -16 0
      vertex -23.375 -9.51554 0
    endloop
  endfacet
  facet normal 0 0 -1
    outer loop
      vertex 23.375 -6.48446 0
      vertex 28.5 0 0
      vertex 24.25 -8 0
    endloop
  endfacet
  facet normal 0 0 -1
    outer loop
      vertex 21.625 -6.48446 0
      vertex 28.5 0 0
      vertex 23.375 -6.48446 0
    endloop
  endfacet
  facet normal 0 0 -1
    outer loop
      vertex -20.75 -8 0
      vertex 21.625 -6.48446 0
      vertex 20.75 -8 0
    endloop
  endfacet
  facet normal 0 0 -1
    outer loop
      vertex -21.625 -6.48446 0
      vertex 21.625 -6.48446 0
      vertex -20.75 -8 0
    endloop
  endfacet
  facet normal 0 0 -1
    outer loop
      vertex 21.625 -6.48446 0
      vertex -21.625 -6.48446 0
      vertex 28.5 0 0
    endloop
  endfacet
  facet normal 0 0 -1
    outer loop
      vertex -28.5 0 0
      vertex -21.625 -6.48446 0
      vertex -23.375 -6.48446 0
    endloop
  endfacet
  facet normal 0 0 -1
    outer loop
      vertex -21.625 -6.48446 0
      vertex -28.5 0 0
      vertex 28.5 0 0
    endloop
  endfacet
  facet normal 0 0 -1
    outer loop
      vertex -24.25 -8 0
      vertex -28.5 0 0
      vertex -23.375 -6.48446 0
    endloop
  endfacet
  facet normal 0 0 -1
    outer loop
      vertex -28.5 0 0
      vertex -24.25 -8 0
      vertex -28.5 -16 0
    endloop
  endfacet
  facet normal -0.994522 0 0.104529
    outer loop
      vertex -16.5 -14 16.5
      vertex -16.1394 -2 19.9305
      vertex -16.5 -2 16.5
    endloop
  endfacet
  facet normal -0.994522 0 0.104529
    outer loop
      vertex -16.1394 -2 19.9305
      vertex -16.5 -14 16.5
      vertex -16.1394 -14 19.9305
    endloop
  endfacet
  facet normal 1.35148e-007 1 1.86015e-007
    outer loop
      vertex 12.6137 -4.26193e-007 24.7833
      vertex 11.0407 -9.53674e-007 28.7619
      vertex 13.3377 -5.2404e-007 24.7833
    endloop
  endfacet
  facet normal 1.35148e-007 1 1.86015e-007
    outer loop
      vertex 11.0407 -9.53674e-007 28.7619
      vertex 12.6137 -4.26193e-007 24.7833
      vertex 8.25 -9.53674e-007 30.7894
    endloop
  endfacet
  facet normal 0.994522 -0 0.104529
    outer loop
      vertex 16.1394 -14 19.9305
      vertex 16.5 -2 16.5
      vertex 16.1394 -2 19.9305
    endloop
  endfacet
  facet normal 0.994522 0 0.104529
    outer loop
      vertex 16.5 -2 16.5
      vertex 16.1394 -14 19.9305
      vertex 16.5 -14 16.5
    endloop
  endfacet
  facet normal -0.866026 0 0.499999
    outer loop
      vertex -15.0735 -2 23.2112
      vertex -15.0735 -14 23.2112
      vertex -14.9726 -2 23.3859
    endloop
  endfacet
  facet normal -0.866025 0 0.5
    outer loop
      vertex -14.9726 -2 23.3859
      vertex -13.3488 -9.53674e-007 26.1985
      vertex -14.9726 -9.53674e-007 23.3859
    endloop
  endfacet
  facet normal -0.866026 0 0.499999
    outer loop
      vertex -14.9726 -14 23.3859
      vertex -14.9726 -2 23.3859
      vertex -15.0735 -14 23.2112
    endloop
  endfacet
  facet normal -0.866025 0 0.5
    outer loop
      vertex -14.9726 -2 23.3859
      vertex -14.9726 -14 23.3859
      vertex -13.3488 -9.53674e-007 26.1985
    endloop
  endfacet
  facet normal -0.866025 0 0.5
    outer loop
      vertex -13.3488 -16 26.1985
      vertex -14.9726 -14 23.3859
      vertex -14.9726 -16 23.3859
    endloop
  endfacet
  facet normal -0.866025 0 0.5
    outer loop
      vertex -14.9726 -14 23.3859
      vertex -13.3488 -16 26.1985
      vertex -13.3488 -9.53674e-007 26.1985
    endloop
  endfacet
  facet normal 1 -0 0
    outer loop
      vertex 16.5 -14 16.5
      vertex 16.5 -2 4
      vertex 16.5 -2 16.5
    endloop
  endfacet
  facet normal 1 0 0
    outer loop
      vertex 16.5 -2 4
      vertex 16.5 -14 16.5
      vertex 16.5 -14 4
    endloop
  endfacet
  facet normal -1.35148e-007 1 1.86015e-007
    outer loop
      vertex -12.6137 -4.26193e-007 24.7833
      vertex -11.0407 -9.53674e-007 28.7619
      vertex -8.25 -9.53674e-007 30.7894
    endloop
  endfacet
  facet normal -1.35148e-007 1 1.86015e-007
    outer loop
      vertex -11.0407 -9.53674e-007 28.7619
      vertex -12.6137 -4.26193e-007 24.7833
      vertex -13.3377 -5.2404e-007 24.7833
    endloop
  endfacet
  facet normal -2.04445e-008 1 9.61838e-008
    outer loop
      vertex -10.7499 -3.56572e-007 24.7833
      vertex -5.09878 -9.53674e-007 32.1924
      vertex -1.72472 -9.53674e-007 32.9096
    endloop
  endfacet
  facet normal -2.04445e-008 1 9.61838e-008
    outer loop
      vertex -5.09878 -9.53674e-007 32.1924
      vertex -10.7499 -3.56572e-007 24.7833
      vertex -11.77 -3.77428e-007 24.7833
    endloop
  endfacet
  facet normal 0.406737 0 0.913545
    outer loop
      vertex 5.09878 -9.53674e-007 32.1924
      vertex 8.25 -16 30.7894
      vertex 8.25 -9.53674e-007 30.7894
    endloop
  endfacet
  facet normal 0.406737 0 0.913545
    outer loop
      vertex 8.25 -16 30.7894
      vertex 5.09878 -9.53674e-007 32.1924
      vertex 5.09878 -16 32.1924
    endloop
  endfacet
  facet normal 5.77984e-008 1 1.29817e-007
    outer loop
      vertex 11.77 -3.77428e-007 24.7833
      vertex 8.25 -9.53674e-007 30.7894
      vertex 12.6137 -4.26193e-007 24.7833
    endloop
  endfacet
  facet normal 5.77986e-008 1 1.29818e-007
    outer loop
      vertex 8.25 -9.53674e-007 30.7894
      vertex 11.77 -3.77428e-007 24.7833
      vertex 5.09878 -9.53674e-007 32.1924
    endloop
  endfacet
  facet normal -0.587785 0 0.809017
    outer loop
      vertex -11.0407 -9.53674e-007 28.7619
      vertex -8.25 -16 30.7894
      vertex -8.25 -9.53674e-007 30.7894
    endloop
  endfacet
  facet normal -0.587785 0 0.809017
    outer loop
      vertex -8.25 -16 30.7894
      vertex -11.0407 -9.53674e-007 28.7619
      vertex -11.0407 -16 28.7619
    endloop
  endfacet
  facet normal -0.743145 0 0.66913
    outer loop
      vertex -13.3488 -16 26.1985
      vertex -11.0407 -9.53674e-007 28.7619
      vertex -13.3488 -9.53674e-007 26.1985
    endloop
  endfacet
  facet normal -0.743145 0 0.66913
    outer loop
      vertex -11.0407 -9.53674e-007 28.7619
      vertex -13.3488 -16 26.1985
      vertex -11.0407 -16 28.7619
    endloop
  endfacet
  facet normal -0.951057 0 0.309017
    outer loop
      vertex -16.1394 -14 19.9305
      vertex -15.0735 -2 23.2112
      vertex -16.1394 -2 19.9305
    endloop
  endfacet
  facet normal -0.951057 0 0.309017
    outer loop
      vertex -15.0735 -2 23.2112
      vertex -16.1394 -14 19.9305
      vertex -15.0735 -14 23.2112
    endloop
  endfacet
  facet normal 0.951057 -0 0.309017
    outer loop
      vertex 15.0735 -14 23.2112
      vertex 16.1394 -2 19.9305
      vertex 15.0735 -2 23.2112
    endloop
  endfacet
  facet normal 0.951057 0 0.309017
    outer loop
      vertex 16.1394 -2 19.9305
      vertex 15.0735 -14 23.2112
      vertex 16.1394 -14 19.9305
    endloop
  endfacet
  facet normal 0.866025 0 0.5
    outer loop
      vertex 13.3488 -9.53674e-007 26.1985
      vertex 14.9726 -2 23.3859
      vertex 14.9726 -9.53674e-007 23.3859
    endloop
  endfacet
  facet normal 0.866026 0 0.499999
    outer loop
      vertex 14.9726 -2 23.3859
      vertex 14.9726 -14 23.3859
      vertex 15.0735 -2 23.2112
    endloop
  endfacet
  facet normal 0.866025 0 0.5
    outer loop
      vertex 13.3488 -9.53674e-007 26.1985
      vertex 14.9726 -14 23.3859
      vertex 14.9726 -2 23.3859
    endloop
  endfacet
  facet normal 0.866025 -0 0.5
    outer loop
      vertex 13.3488 -16 26.1985
      vertex 14.9726 -14 23.3859
      vertex 13.3488 -9.53674e-007 26.1985
    endloop
  endfacet
  facet normal 0.866025 0 0.5
    outer loop
      vertex 14.9726 -14 23.3859
      vertex 13.3488 -16 26.1985
      vertex 14.9726 -16 23.3859
    endloop
  endfacet
  facet normal 0.866026 0 0.499999
    outer loop
      vertex 15.0735 -2 23.2112
      vertex 14.9726 -14 23.3859
      vertex 15.0735 -14 23.2112
    endloop
  endfacet
  facet normal 0.743145 -0 0.66913
    outer loop
      vertex 11.0407 -16 28.7619
      vertex 13.3488 -9.53674e-007 26.1985
      vertex 11.0407 -9.53674e-007 28.7619
    endloop
  endfacet
  facet normal 0.743145 0 0.66913
    outer loop
      vertex 13.3488 -9.53674e-007 26.1985
      vertex 11.0407 -16 28.7619
      vertex 13.3488 -16 26.1985
    endloop
  endfacet
  facet normal -3.34271e-007 1 3.00979e-007
    outer loop
      vertex -13.3377 -5.2404e-007 24.7833
      vertex -13.3488 -9.53674e-007 26.1985
      vertex -11.0407 -9.53674e-007 28.7619
    endloop
  endfacet
  facet normal -3.34271e-007 1 3.00979e-007
    outer loop
      vertex -13.3488 -9.53674e-007 26.1985
      vertex -13.3377 -5.2404e-007 24.7833
      vertex -13.9788 -7.3836e-007 24.7833
    endloop
  endfacet
  facet normal 0.587785 0 0.809017
    outer loop
      vertex 8.25 -9.53674e-007 30.7894
      vertex 11.0407 -16 28.7619
      vertex 11.0407 -9.53674e-007 28.7619
    endloop
  endfacet
  facet normal 0.587785 0 0.809017
    outer loop
      vertex 11.0407 -16 28.7619
      vertex 8.25 -9.53674e-007 30.7894
      vertex 8.25 -16 30.7894
    endloop
  endfacet
  facet normal 2.04445e-008 1 9.61838e-008
    outer loop
      vertex 10.7499 -3.56572e-007 24.7833
      vertex 5.09878 -9.53674e-007 32.1924
      vertex 11.77 -3.77428e-007 24.7833
    endloop
  endfacet
  facet normal 2.04445e-008 1 9.61838e-008
    outer loop
      vertex 5.09878 -9.53674e-007 32.1924
      vertex 10.7499 -3.56572e-007 24.7833
      vertex 1.72472 -9.53674e-007 32.9096
    endloop
  endfacet
  facet normal 0 1 7.34779e-008
    outer loop
      vertex 10.7499 -3.56572e-007 24.7833
      vertex -1.72472 -9.53674e-007 32.9096
      vertex 1.72472 -9.53674e-007 32.9096
    endloop
  endfacet
  facet normal 0 1 7.34779e-008
    outer loop
      vertex -1.72472 -9.53674e-007 32.9096
      vertex 10.7499 -3.56572e-007 24.7833
      vertex -10.7499 -3.56572e-007 24.7833
    endloop
  endfacet
  facet normal -0.207912 0 0.978148
    outer loop
      vertex -5.09878 -9.53674e-007 32.1924
      vertex -1.72472 -16 32.9096
      vertex -1.72472 -9.53674e-007 32.9096
    endloop
  endfacet
  facet normal -0.207912 0 0.978148
    outer loop
      vertex -1.72472 -16 32.9096
      vertex -5.09878 -9.53674e-007 32.1924
      vertex -5.09878 -16 32.1924
    endloop
  endfacet
  facet normal -0.406737 0 0.913545
    outer loop
      vertex -8.25 -9.53674e-007 30.7894
      vertex -5.09878 -16 32.1924
      vertex -5.09878 -9.53674e-007 32.1924
    endloop
  endfacet
  facet normal -0.406737 0 0.913545
    outer loop
      vertex -5.09878 -16 32.1924
      vertex -8.25 -9.53674e-007 30.7894
      vertex -8.25 -16 30.7894
    endloop
  endfacet
  facet normal -5.77986e-008 1 1.29818e-007
    outer loop
      vertex -11.77 -3.77428e-007 24.7833
      vertex -8.25 -9.53674e-007 30.7894
      vertex -5.09878 -9.53674e-007 32.1924
    endloop
  endfacet
  facet normal -5.77984e-008 1 1.29817e-007
    outer loop
      vertex -8.25 -9.53674e-007 30.7894
      vertex -11.77 -3.77428e-007 24.7833
      vertex -12.6137 -4.26193e-007 24.7833
    endloop
  endfacet
  facet normal 1.1516e-006 1 6.64879e-007
    outer loop
      vertex 13.3488 -9.53674e-007 26.1985
      vertex 14.9726 -9.53674e-007 23.3859
      vertex 14 -7.62734e-007 24.7833
    endloop
  endfacet
  facet normal 1.1516e-006 1 6.64878e-007
    outer loop
      vertex 13.3488 -9.53674e-007 26.1985
      vertex 14 -7.62734e-007 24.7833
      vertex 13.9788 -7.3836e-007 24.7833
    endloop
  endfacet
  facet normal 3.34271e-007 1 3.00979e-007
    outer loop
      vertex 13.3377 -5.2404e-007 24.7833
      vertex 13.3488 -9.53674e-007 26.1985
      vertex 13.9788 -7.3836e-007 24.7833
    endloop
  endfacet
  facet normal 3.34271e-007 1 3.00979e-007
    outer loop
      vertex 13.3488 -9.53674e-007 26.1985
      vertex 13.3377 -5.2404e-007 24.7833
      vertex 11.0407 -9.53674e-007 28.7619
    endloop
  endfacet
  facet normal -0 0 1
    outer loop
      vertex -1.72472 -9.53674e-007 32.9096
      vertex 1.72472 -16 32.9096
      vertex 1.72472 -9.53674e-007 32.9096
    endloop
  endfacet
  facet normal 0 0 1
    outer loop
      vertex 1.72472 -16 32.9096
      vertex -1.72472 -9.53674e-007 32.9096
      vertex -1.72472 -16 32.9096
    endloop
  endfacet
  facet normal -1 0 0
    outer loop
      vertex -28.5 -16 0
      vertex -28.5 0 4
      vertex -28.5 0 0
    endloop
  endfacet
  facet normal -1 -0 0
    outer loop
      vertex -28.5 0 4
      vertex -28.5 -16 0
      vertex -28.5 -16 4
    endloop
  endfacet
  facet normal -0 0 1
    outer loop
      vertex -28.5 0 4
      vertex -28.4652 -2 4
      vertex -28.4652 0 4
    endloop
  endfacet
  facet normal 0 0 1
    outer loop
      vertex -28.4652 -2 4
      vertex -28.5 0 4
      vertex -28.4652 -14 4
    endloop
  endfacet
  facet normal 0 0 1
    outer loop
      vertex -28.5 -16 4
      vertex -28.4652 -14 4
      vertex -28.5 0 4
    endloop
  endfacet
  facet normal 0 0 1
    outer loop
      vertex -28.4652 -14 4
      vertex -28.5 -16 4
      vertex -28.4652 -16 4
    endloop
  endfacet
  facet normal 0 0 1
    outer loop
      vertex -16.5 -2 4
      vertex -20.75 -8 4
      vertex -16.5 -14 4
    endloop
  endfacet
  facet normal 0 0 1
    outer loop
      vertex -16.5 -2 4
      vertex -21.625 -6.48446 4
      vertex -20.75 -8 4
    endloop
  endfacet
  facet normal 0 0 1
    outer loop
      vertex -16.5 -2 4
      vertex -23.375 -6.48446 4
      vertex -21.625 -6.48446 4
    endloop
  endfacet
  facet normal 0 0 1
    outer loop
      vertex -23.375 -6.48446 4
      vertex -28.4652 -2 4
      vertex -24.25 -8 4
    endloop
  endfacet
  facet normal -0 0 1
    outer loop
      vertex -28.4652 -2 4
      vertex -23.375 -6.48446 4
      vertex -16.5 -2 4
    endloop
  endfacet
  facet normal -0 0 1
    outer loop
      vertex -21.625 -9.51554 4
      vertex -16.5 -14 4
      vertex -20.75 -8 4
    endloop
  endfacet
  facet normal -0 0 1
    outer loop
      vertex -23.375 -9.51554 4
      vertex -16.5 -14 4
      vertex -21.625 -9.51554 4
    endloop
  endfacet
  facet normal 0 0 1
    outer loop
      vertex -28.4652 -14 4
      vertex -24.25 -8 4
      vertex -28.4652 -2 4
    endloop
  endfacet
  facet normal 0 0 1
    outer loop
      vertex -23.375 -9.51554 4
      vertex -28.4652 -14 4
      vertex -16.5 -14 4
    endloop
  endfacet
  facet normal 0 0 1
    outer loop
      vertex -24.25 -8 4
      vertex -28.4652 -14 4
      vertex -23.375 -9.51554 4
    endloop
  endfacet
  facet normal 0 0 1
    outer loop
      vertex 28.4652 -2 4
      vertex 24.25 -8 4
      vertex 28.4652 -14 4
    endloop
  endfacet
  facet normal 0 0 1
    outer loop
      vertex 28.4652 -2 4
      vertex 23.375 -6.48446 4
      vertex 24.25 -8 4
    endloop
  endfacet
  facet normal 0 0 1
    outer loop
      vertex 28.4652 -2 4
      vertex 21.625 -6.48446 4
      vertex 23.375 -6.48446 4
    endloop
  endfacet
  facet normal 0 0 1
    outer loop
      vertex 21.625 -6.48446 4
      vertex 16.5 -2 4
      vertex 20.75 -8 4
    endloop
  endfacet
  facet normal -0 0 1
    outer loop
      vertex 16.5 -2 4
      vertex 21.625 -6.48446 4
      vertex 28.4652 -2 4
    endloop
  endfacet
  facet normal 0 0 1
    outer loop
      vertex 28.4652 -2 4
      vertex 28.5 0 4
      vertex 28.4652 0 4
    endloop
  endfacet
  facet normal 0 0 1
    outer loop
      vertex 28.5 0 4
      vertex 28.4652 -2 4
      vertex 28.5 -16 4
    endloop
  endfacet
  facet normal -0 0 1
    outer loop
      vertex 28.4652 -14 4
      vertex 28.5 -16 4
      vertex 28.4652 -2 4
    endloop
  endfacet
  facet normal 0 0 1
    outer loop
      vertex 28.5 -16 4
      vertex 28.4652 -14 4
      vertex 28.4652 -16 4
    endloop
  endfacet
  facet normal -0 0 1
    outer loop
      vertex 23.375 -9.51554 4
      vertex 28.4652 -14 4
      vertex 24.25 -8 4
    endloop
  endfacet
  facet normal -0 0 1
    outer loop
      vertex 21.625 -9.51554 4
      vertex 28.4652 -14 4
      vertex 23.375 -9.51554 4
    endloop
  endfacet
  facet normal 0 0 1
    outer loop
      vertex 16.5 -14 4
      vertex 20.75 -8 4
      vertex 16.5 -2 4
    endloop
  endfacet
  facet normal 0 0 1
    outer loop
      vertex 21.625 -9.51554 4
      vertex 16.5 -14 4
      vertex 28.4652 -14 4
    endloop
  endfacet
  facet normal 0 0 1
    outer loop
      vertex 20.75 -8 4
      vertex 16.5 -14 4
      vertex 21.625 -9.51554 4
    endloop
  endfacet
  facet normal 1 -0 0
    outer loop
      vertex 28.5 -16 4
      vertex 28.5 0 0
      vertex 28.5 0 4
    endloop
  endfacet
  facet normal 1 0 0
    outer loop
      vertex 28.5 0 0
      vertex 28.5 -16 4
      vertex 28.5 -16 0
    endloop
  endfacet
  facet normal 0 1 -0
    outer loop
      vertex -15.0735 -14 23.2112
      vertex -28.4652 -14 4
      vertex -14.9726 -14 23.3859
    endloop
  endfacet
  facet normal 0 1 -0
    outer loop
      vertex -16.1394 -14 19.9305
      vertex -28.4652 -14 4
      vertex -15.0735 -14 23.2112
    endloop
  endfacet
  facet normal 0 1 -0
    outer loop
      vertex -16.5 -14 16.5
      vertex -28.4652 -14 4
      vertex -16.1394 -14 19.9305
    endloop
  endfacet
  facet normal 0 1 0
    outer loop
      vertex -28.4652 -14 4
      vertex -16.5 -14 16.5
      vertex -16.5 -14 4
    endloop
  endfacet
  facet normal 0 1 0
    outer loop
      vertex 28.4652 -14 4
      vertex 15.0735 -14 23.2112
      vertex 14.9726 -14 23.3859
    endloop
  endfacet
  facet normal 0 1 0
    outer loop
      vertex 28.4652 -14 4
      vertex 16.1394 -14 19.9305
      vertex 15.0735 -14 23.2112
    endloop
  endfacet
  facet normal 0 1 0
    outer loop
      vertex 28.4652 -14 4
      vertex 16.5 -14 16.5
      vertex 16.1394 -14 19.9305
    endloop
  endfacet
  facet normal 0 1 0
    outer loop
      vertex 16.5 -14 16.5
      vertex 28.4652 -14 4
      vertex 16.5 -14 4
    endloop
  endfacet
  facet normal 0.820771 -0 0.571257
    outer loop
      vertex 14.9726 -16 23.3859
      vertex 28.4652 -14 4
      vertex 14.9726 -14 23.3859
    endloop
  endfacet
  facet normal 0.820771 0 0.571257
    outer loop
      vertex 28.4652 -14 4
      vertex 14.9726 -16 23.3859
      vertex 28.4652 -16 4
    endloop
  endfacet
  facet normal -0.820771 0 0.571257
    outer loop
      vertex -28.4652 -16 4
      vertex -14.9726 -14 23.3859
      vertex -28.4652 -14 4
    endloop
  endfacet
  facet normal -0.820771 0 0.571257
    outer loop
      vertex -14.9726 -14 23.3859
      vertex -28.4652 -16 4
      vertex -14.9726 -16 23.3859
    endloop
  endfacet
  facet normal 0.820771 0 0.571257
    outer loop
      vertex 14.9726 -9.53674e-007 23.3859
      vertex 14 0 24.7833
      vertex 14 -7.62734e-007 24.7833
    endloop
  endfacet
  facet normal 0.78171 0.304823 0.54407
    outer loop
      vertex 14 0 24.7833
      vertex 14.9726 -9.53674e-007 23.3859
      vertex 28.4652 0 4
    endloop
  endfacet
  facet normal 0.820771 -0 0.571257
    outer loop
      vertex 14.9726 -2 23.3859
      vertex 28.4652 0 4
      vertex 14.9726 -9.53674e-007 23.3859
    endloop
  endfacet
  facet normal 0.820771 0 0.571257
    outer loop
      vertex 28.4652 0 4
      vertex 14.9726 -2 23.3859
      vertex 28.4652 -2 4
    endloop
  endfacet
  facet normal -0.78171 0.304823 0.54407
    outer loop
      vertex -14.9726 -9.53674e-007 23.3859
      vertex -14 0 24.7833
      vertex -28.4652 0 4
    endloop
  endfacet
  facet normal -0.820771 0 0.571257
    outer loop
      vertex -14 0 24.7833
      vertex -14.9726 -9.53674e-007 23.3859
      vertex -14 -7.62734e-007 24.7833
    endloop
  endfacet
  facet normal -0.820771 0 0.571257
    outer loop
      vertex -28.4652 -2 4
      vertex -14.9726 -9.53674e-007 23.3859
      vertex -28.4652 0 4
    endloop
  endfacet
  facet normal -0.820771 0 0.571257
    outer loop
      vertex -14.9726 -9.53674e-007 23.3859
      vertex -28.4652 -2 4
      vertex -14.9726 -2 23.3859
    endloop
  endfacet
  facet normal 0 -1 0
    outer loop
      vertex -28.4652 -2 4
      vertex -15.0735 -2 23.2112
      vertex -14.9726 -2 23.3859
    endloop
  endfacet
  facet normal 0 -1 0
    outer loop
      vertex -28.4652 -2 4
      vertex -16.1394 -2 19.9305
      vertex -15.0735 -2 23.2112
    endloop
  endfacet
  facet normal 0 -1 0
    outer loop
      vertex -28.4652 -2 4
      vertex -16.5 -2 16.5
      vertex -16.1394 -2 19.9305
    endloop
  endfacet
  facet normal 0 -1 -0
    outer loop
      vertex -16.5 -2 16.5
      vertex -28.4652 -2 4
      vertex -16.5 -2 4
    endloop
  endfacet
  facet normal 0 -1 0
    outer loop
      vertex 15.0735 -2 23.2112
      vertex 28.4652 -2 4
      vertex 14.9726 -2 23.3859
    endloop
  endfacet
  facet normal 0 -1 0
    outer loop
      vertex 16.1394 -2 19.9305
      vertex 28.4652 -2 4
      vertex 15.0735 -2 23.2112
    endloop
  endfacet
  facet normal 0 -1 0
    outer loop
      vertex 16.5 -2 16.5
      vertex 28.4652 -2 4
      vertex 16.1394 -2 19.9305
    endloop
  endfacet
  facet normal 0 -1 0
    outer loop
      vertex 28.4652 -2 4
      vertex 16.5 -2 16.5
      vertex 16.5 -2 4
    endloop
  endfacet
  facet normal 0 0 1
    outer loop
      vertex 14 0 24.7833
      vertex 13.9788 -7.3836e-007 24.7833
      vertex 14 -7.62734e-007 24.7833
    endloop
  endfacet
  facet normal 0 0 1
    outer loop
      vertex 14 0 24.7833
      vertex 13.3377 -5.2404e-007 24.7833
      vertex 13.9788 -7.3836e-007 24.7833
    endloop
  endfacet
  facet normal 0 0 1
    outer loop
      vertex 14 0 24.7833
      vertex 12.6137 -4.26193e-007 24.7833
      vertex 13.3377 -5.2404e-007 24.7833
    endloop
  endfacet
  facet normal 0 0 1
    outer loop
      vertex 14 0 24.7833
      vertex 11.77 -3.77428e-007 24.7833
      vertex 12.6137 -4.26193e-007 24.7833
    endloop
  endfacet
  facet normal 0 0 1
    outer loop
      vertex 14 0 24.7833
      vertex 10.7499 -3.56572e-007 24.7833
      vertex 11.77 -3.77428e-007 24.7833
    endloop
  endfacet
  facet normal 0 0 1
    outer loop
      vertex 14 0 24.7833
      vertex -10.7499 -3.56572e-007 24.7833
      vertex 10.7499 -3.56572e-007 24.7833
    endloop
  endfacet
  facet normal -0 0 1
    outer loop
      vertex -14 0 24.7833
      vertex -10.7499 -3.56572e-007 24.7833
      vertex 14 0 24.7833
    endloop
  endfacet
  facet normal 0 0 1
    outer loop
      vertex -14 0 24.7833
      vertex -11.77 -3.77428e-007 24.7833
      vertex -10.7499 -3.56572e-007 24.7833
    endloop
  endfacet
  facet normal 0 0 1
    outer loop
      vertex -14 0 24.7833
      vertex -12.6137 -4.26193e-007 24.7833
      vertex -11.77 -3.77428e-007 24.7833
    endloop
  endfacet
  facet normal 0 0 1
    outer loop
      vertex -14 0 24.7833
      vertex -13.3377 -5.2404e-007 24.7833
      vertex -12.6137 -4.26193e-007 24.7833
    endloop
  endfacet
  facet normal 0 0 1
    outer loop
      vertex -14 0 24.7833
      vertex -13.9788 -7.3836e-007 24.7833
      vertex -13.3377 -5.2404e-007 24.7833
    endloop
  endfacet
  facet normal 0 0 1
    outer loop
      vertex -13.9788 -7.3836e-007 24.7833
      vertex -14 0 24.7833
      vertex -14 -7.62734e-007 24.7833
    endloop
  endfacet
  facet normal -0.587786 0 0.809017
    outer loop
      vertex 6.25 -1.5 5.67468
      vertex 8.36413 -16 7.21069
      vertex 8.36413 -1.5 7.21069
    endloop
  endfacet
  facet normal -0.587786 0 0.809017
    outer loop
      vertex 8.36413 -16 7.21069
      vertex 6.25 -1.5 5.67468
      vertex 6.25 -16 5.67468
    endloop
  endfacet
  facet normal -0.994522 0 0.104529
    outer loop
      vertex 12.2268 -16 13.9011
      vertex 12.5 -1.5 16.5
      vertex 12.2268 -1.5 13.9011
    endloop
  endfacet
  facet normal -0.994522 0 0.104529
    outer loop
      vertex 12.5 -1.5 16.5
      vertex 12.2268 -16 13.9011
      vertex 12.5 -16 16.5
    endloop
  endfacet
  facet normal 0.994522 -0 0.104529
    outer loop
      vertex -12.5 -16 16.5
      vertex -12.2268 -1.5 13.9011
      vertex -12.5 -1.5 16.5
    endloop
  endfacet
  facet normal 0.994522 0 0.104529
    outer loop
      vertex -12.2268 -1.5 13.9011
      vertex -12.5 -16 16.5
      vertex -12.2268 -16 13.9011
    endloop
  endfacet
  facet normal 6.31018e-008 -1 -2.96871e-007
    outer loop
      vertex -1.30661 -1.5 28.9315
      vertex -3.86271 -1.5 28.3882
      vertex -10.1127 -1.5 23.8473
    endloop
  endfacet
  facet normal -0 0 1
    outer loop
      vertex -1.30661 -1.5 4.06848
      vertex 1.30661 -16 4.06848
      vertex 1.30661 -1.5 4.06848
    endloop
  endfacet
  facet normal 0 0 1
    outer loop
      vertex 1.30661 -16 4.06848
      vertex -1.30661 -1.5 4.06848
      vertex -1.30661 -16 4.06848
    endloop
  endfacet
  facet normal 0.743145 -0 0.669131
    outer loop
      vertex -10.1127 -16 9.15268
      vertex -8.36413 -1.5 7.21069
      vertex -10.1127 -1.5 9.15268
    endloop
  endfacet
  facet normal 0.743145 0 0.669131
    outer loop
      vertex -8.36413 -1.5 7.21069
      vertex -10.1127 -16 9.15268
      vertex -8.36413 -16 7.21069
    endloop
  endfacet
  facet normal 0 -1 -1.87576e-007
    outer loop
      vertex -10.1127 -1.5 23.8473
      vertex 1.30661 -1.5 28.9315
      vertex -1.30661 -1.5 28.9315
    endloop
  endfacet
  facet normal 0 -1 -1.87576e-007
    outer loop
      vertex 1.30661 -1.5 28.9315
      vertex -10.1127 -1.5 23.8473
      vertex 10.1127 -1.5 23.8473
    endloop
  endfacet
  facet normal 0.866025 -0 0.5
    outer loop
      vertex -11.4193 -16 11.4158
      vertex -10.1127 -1.5 9.15268
      vertex -11.4193 -1.5 11.4158
    endloop
  endfacet
  facet normal 0.866025 0 0.5
    outer loop
      vertex -10.1127 -1.5 9.15268
      vertex -11.4193 -16 11.4158
      vertex -10.1127 -16 9.15268
    endloop
  endfacet
  facet normal 0.406736 0 0.913546
    outer loop
      vertex -6.25 -1.5 5.67468
      vertex -3.86271 -16 4.61179
      vertex -3.86271 -1.5 4.61179
    endloop
  endfacet
  facet normal 0.406736 0 0.913546
    outer loop
      vertex -3.86271 -16 4.61179
      vertex -6.25 -1.5 5.67468
      vertex -6.25 -16 5.67468
    endloop
  endfacet
  facet normal 0 0 -1
    outer loop
      vertex -1.30661 -16 28.9315
      vertex 1.30661 -1.5 28.9315
      vertex 1.30661 -16 28.9315
    endloop
  endfacet
  facet normal -0 0 -1
    outer loop
      vertex 1.30661 -1.5 28.9315
      vertex -1.30661 -16 28.9315
      vertex -1.30661 -1.5 28.9315
    endloop
  endfacet
  facet normal -2.41497e-007 -1 -5.42411e-007
    outer loop
      vertex 10.1127 -1.5 23.8473
      vertex 6.25 -1.5 27.3253
      vertex 3.86271 -1.5 28.3882
    endloop
  endfacet
  facet normal -0.951057 0 -0.309017
    outer loop
      vertex 12.2268 -16 19.0989
      vertex 11.4193 -1.5 21.5842
      vertex 12.2268 -1.5 19.0989
    endloop
  endfacet
  facet normal -0.951057 -0 -0.309017
    outer loop
      vertex 11.4193 -1.5 21.5842
      vertex 12.2268 -16 19.0989
      vertex 11.4193 -16 21.5842
    endloop
  endfacet
  facet normal 0.951057 -0 0.309017
    outer loop
      vertex -12.2268 -16 13.9011
      vertex -11.4193 -1.5 11.4158
      vertex -12.2268 -1.5 13.9011
    endloop
  endfacet
  facet normal 0.951057 0 0.309017
    outer loop
      vertex -11.4193 -1.5 11.4158
      vertex -12.2268 -16 13.9011
      vertex -11.4193 -16 11.4158
    endloop
  endfacet
  facet normal 0 -1 0
    outer loop
      vertex 6.75 -1.5 16.5
      vertex 3.24759 -1.5 18.375
      vertex 3.75 -1.5 16.5
    endloop
  endfacet
  facet normal 0 -1 0
    outer loop
      vertex 3.24759 -1.5 18.375
      vertex 6.75 -1.5 16.5
      vertex 7.625 -1.5 18.0155
    endloop
  endfacet
  facet normal 0 -1 0
    outer loop
      vertex 3.24759 -1.5 14.625
      vertex 6.75 -1.5 16.5
      vertex 3.75 -1.5 16.5
    endloop
  endfacet
  facet normal 0 -1 0
    outer loop
      vertex 8.36413 -1.5 7.21069
      vertex 7.625 -1.5 14.9845
      vertex 3.24759 -1.5 14.625
    endloop
  endfacet
  facet normal 0 -1 -0
    outer loop
      vertex 6.75 -1.5 16.5
      vertex 3.24759 -1.5 14.625
      vertex 7.625 -1.5 14.9845
    endloop
  endfacet
  facet normal 0 -1 0
    outer loop
      vertex -7.625 -1.5 18.0155
      vertex -10.1127 -1.5 23.8473
      vertex -11.4193 -1.5 21.5842
    endloop
  endfacet
  facet normal 0 -1 0
    outer loop
      vertex -10.1127 -1.5 23.8473
      vertex 0 -1.5 20.25
      vertex 10.1127 -1.5 23.8473
    endloop
  endfacet
  facet normal 0 -1 0
    outer loop
      vertex 1.875 -1.5 19.7476
      vertex 10.1127 -1.5 23.8473
      vertex 0 -1.5 20.25
    endloop
  endfacet
  facet normal 0 -1 0
    outer loop
      vertex -10.1127 -1.5 23.8473
      vertex -1.875 -1.5 19.7476
      vertex 0 -1.5 20.25
    endloop
  endfacet
  facet normal 0 -1 0
    outer loop
      vertex -9.375 -1.5 18.0155
      vertex -11.4193 -1.5 21.5842
      vertex -12.2268 -1.5 19.0989
    endloop
  endfacet
  facet normal 0 -1 0
    outer loop
      vertex -10.1127 -1.5 23.8473
      vertex -7.625 -1.5 18.0155
      vertex -1.875 -1.5 19.7476
    endloop
  endfacet
  facet normal 0 -1 0
    outer loop
      vertex -11.4193 -1.5 21.5842
      vertex -9.375 -1.5 18.0155
      vertex -7.625 -1.5 18.0155
    endloop
  endfacet
  facet normal 0 -1 0
    outer loop
      vertex -10.25 -1.5 16.5
      vertex -12.2268 -1.5 19.0989
      vertex -12.5 -1.5 16.5
    endloop
  endfacet
  facet normal 0 -1 0
    outer loop
      vertex -12.2268 -1.5 19.0989
      vertex -10.25 -1.5 16.5
      vertex -9.375 -1.5 18.0155
    endloop
  endfacet
  facet normal 0 -1 0
    outer loop
      vertex -12.2268 -1.5 13.9011
      vertex -10.25 -1.5 16.5
      vertex -12.5 -1.5 16.5
    endloop
  endfacet
  facet normal 0 -1 0
    outer loop
      vertex -11.4193 -1.5 11.4158
      vertex -7.625 -1.5 14.9845
      vertex -9.375 -1.5 14.9845
    endloop
  endfacet
  facet normal 0 -1 -0
    outer loop
      vertex -10.25 -1.5 16.5
      vertex -12.2268 -1.5 13.9011
      vertex -9.375 -1.5 14.9845
    endloop
  endfacet
  facet normal 0 -1 0
    outer loop
      vertex -11.4193 -1.5 11.4158
      vertex -9.375 -1.5 14.9845
      vertex -12.2268 -1.5 13.9011
    endloop
  endfacet
  facet normal 0 -1 0
    outer loop
      vertex -7.625 -1.5 14.9845
      vertex -11.4193 -1.5 11.4158
      vertex -10.1127 -1.5 9.15268
    endloop
  endfacet
  facet normal 0 -1 0
    outer loop
      vertex -8.36413 -1.5 7.21069
      vertex -7.625 -1.5 14.9845
      vertex -10.1127 -1.5 9.15268
    endloop
  endfacet
  facet normal 0 -1 -0
    outer loop
      vertex -7.625 -1.5 14.9845
      vertex -8.36413 -1.5 7.21069
      vertex -3.24759 -1.5 14.625
    endloop
  endfacet
  facet normal 0 -1 0
    outer loop
      vertex 7.625 -1.5 18.0155
      vertex 10.1127 -1.5 23.8473
      vertex 1.875 -1.5 19.7476
    endloop
  endfacet
  facet normal 0 -1 -0
    outer loop
      vertex 10.1127 -1.5 23.8473
      vertex 7.625 -1.5 18.0155
      vertex 11.4193 -1.5 21.5842
    endloop
  endfacet
  facet normal 0 -1 0
    outer loop
      vertex 7.625 -1.5 18.0155
      vertex 1.875 -1.5 19.7476
      vertex 3.24759 -1.5 18.375
    endloop
  endfacet
  facet normal 0 -1 0
    outer loop
      vertex 9.375 -1.5 18.0155
      vertex 11.4193 -1.5 21.5842
      vertex 7.625 -1.5 18.0155
    endloop
  endfacet
  facet normal 0 -1 -0
    outer loop
      vertex 11.4193 -1.5 21.5842
      vertex 9.375 -1.5 18.0155
      vertex 12.2268 -1.5 19.0989
    endloop
  endfacet
  facet normal 0 -1 0
    outer loop
      vertex 10.25 -1.5 16.5
      vertex 12.2268 -1.5 19.0989
      vertex 9.375 -1.5 18.0155
    endloop
  endfacet
  facet normal 0 -1 0
    outer loop
      vertex 10.25 -1.5 16.5
      vertex 12.5 -1.5 16.5
      vertex 12.2268 -1.5 19.0989
    endloop
  endfacet
  facet normal 0 -1 0
    outer loop
      vertex 12.2268 -1.5 13.9011
      vertex 10.25 -1.5 16.5
      vertex 9.375 -1.5 14.9845
    endloop
  endfacet
  facet normal 0 -1 0
    outer loop
      vertex 10.25 -1.5 16.5
      vertex 12.2268 -1.5 13.9011
      vertex 12.5 -1.5 16.5
    endloop
  endfacet
  facet normal -0 -1 0
    outer loop
      vertex 11.4193 -1.5 11.4158
      vertex 7.625 -1.5 14.9845
      vertex 10.1127 -1.5 9.15268
    endloop
  endfacet
  facet normal 0 -1 0
    outer loop
      vertex 8.36413 -1.5 7.21069
      vertex 3.24759 -1.5 14.625
      vertex 1.875 -1.5 13.2524
    endloop
  endfacet
  facet normal 0 -1 0
    outer loop
      vertex 3.86271 -1.5 4.61179
      vertex 1.875 -1.5 13.2524
      vertex 0 -1.5 12.75
    endloop
  endfacet
  facet normal 0 -1 -0
    outer loop
      vertex -3.24759 -1.5 14.625
      vertex -8.36413 -1.5 7.21069
      vertex -1.875 -1.5 13.2524
    endloop
  endfacet
  facet normal 0 -1 0
    outer loop
      vertex 9.375 -1.5 14.9845
      vertex 11.4193 -1.5 11.4158
      vertex 12.2268 -1.5 13.9011
    endloop
  endfacet
  facet normal 0 -1 0
    outer loop
      vertex -6.25 -1.5 5.67468
      vertex -1.875 -1.5 13.2524
      vertex -8.36413 -1.5 7.21069
    endloop
  endfacet
  facet normal 0 -1 0
    outer loop
      vertex 7.625 -1.5 14.9845
      vertex 11.4193 -1.5 11.4158
      vertex 9.375 -1.5 14.9845
    endloop
  endfacet
  facet normal 0 -1 0
    outer loop
      vertex -3.86271 -1.5 4.61179
      vertex -1.875 -1.5 13.2524
      vertex -6.25 -1.5 5.67468
    endloop
  endfacet
  facet normal 0 -1 0
    outer loop
      vertex 7.625 -1.5 14.9845
      vertex 8.36413 -1.5 7.21069
      vertex 10.1127 -1.5 9.15268
    endloop
  endfacet
  facet normal 0 -1 -0
    outer loop
      vertex -1.875 -1.5 13.2524
      vertex -3.86271 -1.5 4.61179
      vertex 0 -1.5 12.75
    endloop
  endfacet
  facet normal 0 -1 0
    outer loop
      vertex 1.875 -1.5 13.2524
      vertex 6.25 -1.5 5.67468
      vertex 8.36413 -1.5 7.21069
    endloop
  endfacet
  facet normal 0 -1 0
    outer loop
      vertex -1.30661 -1.5 4.06848
      vertex 0 -1.5 12.75
      vertex -3.86271 -1.5 4.61179
    endloop
  endfacet
  facet normal 0 -1 0
    outer loop
      vertex 1.875 -1.5 13.2524
      vertex 3.86271 -1.5 4.61179
      vertex 6.25 -1.5 5.67468
    endloop
  endfacet
  facet normal 0 -1 0
    outer loop
      vertex 1.30661 -1.5 4.06848
      vertex 0 -1.5 12.75
      vertex -1.30661 -1.5 4.06848
    endloop
  endfacet
  facet normal 0 -1 0
    outer loop
      vertex 0 -1.5 12.75
      vertex 1.30661 -1.5 4.06848
      vertex 3.86271 -1.5 4.61179
    endloop
  endfacet
  facet normal 0 -1 0
    outer loop
      vertex -1.875 -1.5 19.7476
      vertex -7.625 -1.5 18.0155
      vertex -3.24759 -1.5 18.375
    endloop
  endfacet
  facet normal 0 -1 0
    outer loop
      vertex -6.75 -1.5 16.5
      vertex -3.24759 -1.5 18.375
      vertex -7.625 -1.5 18.0155
    endloop
  endfacet
  facet normal 0 -1 0
    outer loop
      vertex -6.75 -1.5 16.5
      vertex -3.75 -1.5 16.5
      vertex -3.24759 -1.5 18.375
    endloop
  endfacet
  facet normal 0 -1 0
    outer loop
      vertex -3.24759 -1.5 14.625
      vertex -6.75 -1.5 16.5
      vertex -7.625 -1.5 14.9845
    endloop
  endfacet
  facet normal 0 -1 0
    outer loop
      vertex -6.75 -1.5 16.5
      vertex -3.24759 -1.5 14.625
      vertex -3.75 -1.5 16.5
    endloop
  endfacet
  facet normal 0.587785 0 0.809017
    outer loop
      vertex -8.36413 -1.5 7.21069
      vertex -6.25 -16 5.67468
      vertex -6.25 -1.5 5.67468
    endloop
  endfacet
  facet normal 0.587785 0 0.809017
    outer loop
      vertex -6.25 -16 5.67468
      vertex -8.36413 -1.5 7.21069
      vertex -8.36413 -16 7.21069
    endloop
  endfacet
  facet normal 0.207912 0 0.978148
    outer loop
      vertex -3.86271 -1.5 4.61179
      vertex -1.30661 -16 4.06848
      vertex -1.30661 -1.5 4.06848
    endloop
  endfacet
  facet normal 0.207912 0 0.978148
    outer loop
      vertex -1.30661 -16 4.06848
      vertex -3.86271 -1.5 4.61179
      vertex -3.86271 -16 4.61179
    endloop
  endfacet
  facet normal -0.994522 0 -0.104529
    outer loop
      vertex 12.5 -16 16.5
      vertex 12.2268 -1.5 19.0989
      vertex 12.5 -1.5 16.5
    endloop
  endfacet
  facet normal -0.994522 -0 -0.104529
    outer loop
      vertex 12.2268 -1.5 19.0989
      vertex 12.5 -16 16.5
      vertex 12.2268 -16 19.0989
    endloop
  endfacet
  facet normal 0.866025 0 -0.5
    outer loop
      vertex -10.1127 -16 23.8473
      vertex -11.4193 -1.5 21.5842
      vertex -10.1127 -1.5 23.8473
    endloop
  endfacet
  facet normal 0.866025 0 -0.5
    outer loop
      vertex -11.4193 -1.5 21.5842
      vertex -10.1127 -16 23.8473
      vertex -11.4193 -16 21.5842
    endloop
  endfacet
  facet normal 0.743145 0 -0.66913
    outer loop
      vertex -8.36413 -16 25.7893
      vertex -10.1127 -1.5 23.8473
      vertex -8.36413 -1.5 25.7893
    endloop
  endfacet
  facet normal 0.743145 0 -0.66913
    outer loop
      vertex -10.1127 -1.5 23.8473
      vertex -8.36413 -16 25.7893
      vertex -10.1127 -16 23.8473
    endloop
  endfacet
  facet normal -0.743145 0 0.669131
    outer loop
      vertex 8.36413 -16 7.21069
      vertex 10.1127 -1.5 9.15268
      vertex 8.36413 -1.5 7.21069
    endloop
  endfacet
  facet normal -0.743145 0 0.669131
    outer loop
      vertex 10.1127 -1.5 9.15268
      vertex 8.36413 -16 7.21069
      vertex 10.1127 -16 9.15268
    endloop
  endfacet
  facet normal -0.207912 0 0.978148
    outer loop
      vertex 1.30661 -1.5 4.06848
      vertex 3.86271 -16 4.61179
      vertex 3.86271 -1.5 4.61179
    endloop
  endfacet
  facet normal -0.207912 0 0.978148
    outer loop
      vertex 3.86271 -16 4.61179
      vertex 1.30661 -1.5 4.06848
      vertex 1.30661 -16 4.06848
    endloop
  endfacet
  facet normal -0.406736 0 0.913546
    outer loop
      vertex 3.86271 -1.5 4.61179
      vertex 6.25 -16 5.67468
      vertex 6.25 -1.5 5.67468
    endloop
  endfacet
  facet normal -0.406736 0 0.913546
    outer loop
      vertex 6.25 -16 5.67468
      vertex 3.86271 -1.5 4.61179
      vertex 3.86271 -16 4.61179
    endloop
  endfacet
  facet normal -0.207911 0 -0.978148
    outer loop
      vertex 1.30661 -16 28.9315
      vertex 3.86271 -1.5 28.3882
      vertex 3.86271 -16 28.3882
    endloop
  endfacet
  facet normal -0.207911 0 -0.978148
    outer loop
      vertex 3.86271 -1.5 28.3882
      vertex 1.30661 -16 28.9315
      vertex 1.30661 -1.5 28.9315
    endloop
  endfacet
  facet normal -0.866025 0 -0.5
    outer loop
      vertex 11.4193 -16 21.5842
      vertex 10.1127 -1.5 23.8473
      vertex 11.4193 -1.5 21.5842
    endloop
  endfacet
  facet normal -0.866025 -0 -0.5
    outer loop
      vertex 10.1127 -1.5 23.8473
      vertex 11.4193 -16 21.5842
      vertex 10.1127 -16 23.8473
    endloop
  endfacet
  facet normal 0.994522 0 -0.104529
    outer loop
      vertex -12.2268 -16 19.0989
      vertex -12.5 -1.5 16.5
      vertex -12.2268 -1.5 19.0989
    endloop
  endfacet
  facet normal 0.994522 0 -0.104529
    outer loop
      vertex -12.5 -1.5 16.5
      vertex -12.2268 -16 19.0989
      vertex -12.5 -16 16.5
    endloop
  endfacet
  facet normal 0.587785 0 -0.809017
    outer loop
      vertex -8.36413 -16 25.7893
      vertex -6.25 -1.5 27.3253
      vertex -6.25 -16 27.3253
    endloop
  endfacet
  facet normal 0.587785 0 -0.809017
    outer loop
      vertex -6.25 -1.5 27.3253
      vertex -8.36413 -16 25.7893
      vertex -8.36413 -1.5 25.7893
    endloop
  endfacet
  facet normal 1.03173e-006 -1 -1.42005e-006
    outer loop
      vertex -6.25 -1.5 27.3253
      vertex -8.36413 -1.5 25.7893
      vertex -10.1127 -1.5 23.8473
    endloop
  endfacet
  facet normal -0.587785 0 -0.809017
    outer loop
      vertex 6.25 -16 27.3253
      vertex 8.36413 -1.5 25.7893
      vertex 8.36413 -16 25.7893
    endloop
  endfacet
  facet normal -0.587785 0 -0.809017
    outer loop
      vertex 8.36413 -1.5 25.7893
      vertex 6.25 -16 27.3253
      vertex 6.25 -1.5 27.3253
    endloop
  endfacet
  facet normal -6.31018e-008 -1 -2.96871e-007
    outer loop
      vertex 10.1127 -1.5 23.8473
      vertex 3.86271 -1.5 28.3882
      vertex 1.30661 -1.5 28.9315
    endloop
  endfacet
  facet normal -0.866025 0 0.5
    outer loop
      vertex 10.1127 -16 9.15268
      vertex 11.4193 -1.5 11.4158
      vertex 10.1127 -1.5 9.15268
    endloop
  endfacet
  facet normal -0.866025 0 0.5
    outer loop
      vertex 11.4193 -1.5 11.4158
      vertex 10.1127 -16 9.15268
      vertex 11.4193 -16 11.4158
    endloop
  endfacet
  facet normal -0.951057 0 0.309017
    outer loop
      vertex 11.4193 -16 11.4158
      vertex 12.2268 -1.5 13.9011
      vertex 11.4193 -1.5 11.4158
    endloop
  endfacet
  facet normal -0.951057 0 0.309017
    outer loop
      vertex 12.2268 -1.5 13.9011
      vertex 11.4193 -16 11.4158
      vertex 12.2268 -16 13.9011
    endloop
  endfacet
  facet normal 2.41497e-007 -1 -5.42411e-007
    outer loop
      vertex -3.86271 -1.5 28.3882
      vertex -6.25 -1.5 27.3253
      vertex -10.1127 -1.5 23.8473
    endloop
  endfacet
  facet normal -0.743145 0 -0.66913
    outer loop
      vertex 10.1127 -16 23.8473
      vertex 8.36413 -1.5 25.7893
      vertex 10.1127 -1.5 23.8473
    endloop
  endfacet
  facet normal -0.743145 -0 -0.66913
    outer loop
      vertex 8.36413 -1.5 25.7893
      vertex 10.1127 -16 23.8473
      vertex 8.36413 -16 25.7893
    endloop
  endfacet
  facet normal -1.03173e-006 -1 -1.42005e-006
    outer loop
      vertex 10.1127 -1.5 23.8473
      vertex 8.36413 -1.5 25.7893
      vertex 6.25 -1.5 27.3253
    endloop
  endfacet
  facet normal -0.406737 0 -0.913545
    outer loop
      vertex 3.86271 -16 28.3882
      vertex 6.25 -1.5 27.3253
      vertex 6.25 -16 27.3253
    endloop
  endfacet
  facet normal -0.406737 0 -0.913545
    outer loop
      vertex 6.25 -1.5 27.3253
      vertex 3.86271 -16 28.3882
      vertex 3.86271 -1.5 28.3882
    endloop
  endfacet
  facet normal 0.207911 0 -0.978148
    outer loop
      vertex -3.86271 -16 28.3882
      vertex -1.30661 -1.5 28.9315
      vertex -1.30661 -16 28.9315
    endloop
  endfacet
  facet normal 0.207911 0 -0.978148
    outer loop
      vertex -1.30661 -1.5 28.9315
      vertex -3.86271 -16 28.3882
      vertex -3.86271 -1.5 28.3882
    endloop
  endfacet
  facet normal 0.406737 0 -0.913545
    outer loop
      vertex -6.25 -16 27.3253
      vertex -3.86271 -1.5 28.3882
      vertex -3.86271 -16 28.3882
    endloop
  endfacet
  facet normal 0.406737 0 -0.913545
    outer loop
      vertex -3.86271 -1.5 28.3882
      vertex -6.25 -16 27.3253
      vertex -6.25 -1.5 27.3253
    endloop
  endfacet
  facet normal 0.951057 0 -0.309017
    outer loop
      vertex -11.4193 -16 21.5842
      vertex -12.2268 -1.5 19.0989
      vertex -11.4193 -1.5 21.5842
    endloop
  endfacet
  facet normal 0.951057 0 -0.309017
    outer loop
      vertex -12.2268 -1.5 19.0989
      vertex -11.4193 -16 21.5842
      vertex -12.2268 -16 19.0989
    endloop
  endfacet
  facet normal -0.965926 0 0.258819
    outer loop
      vertex 3.24759 -1.5 14.625
      vertex 3.75 0 16.5
      vertex 3.24759 0 14.625
    endloop
  endfacet
  facet normal -0.965926 0 0.258819
    outer loop
      vertex 3.75 0 16.5
      vertex 3.24759 -1.5 14.625
      vertex 3.75 -1.5 16.5
    endloop
  endfacet
  facet normal 0.965926 -0 0.258819
    outer loop
      vertex -3.75 -1.5 16.5
      vertex -3.24759 0 14.625
      vertex -3.75 0 16.5
    endloop
  endfacet
  facet normal 0.965926 0 0.258819
    outer loop
      vertex -3.24759 0 14.625
      vertex -3.75 -1.5 16.5
      vertex -3.24759 -1.5 14.625
    endloop
  endfacet
  facet normal 0.258819 0 0.965926
    outer loop
      vertex -1.875 0 13.2524
      vertex 0 -1.5 12.75
      vertex 0 0 12.75
    endloop
  endfacet
  facet normal 0.258819 0 0.965926
    outer loop
      vertex 0 -1.5 12.75
      vertex -1.875 0 13.2524
      vertex -1.875 -1.5 13.2524
    endloop
  endfacet
  facet normal -0.707107 0 0.707107
    outer loop
      vertex 1.875 -1.5 13.2524
      vertex 3.24759 0 14.625
      vertex 1.875 0 13.2524
    endloop
  endfacet
  facet normal -0.707107 0 0.707107
    outer loop
      vertex 3.24759 0 14.625
      vertex 1.875 -1.5 13.2524
      vertex 3.24759 -1.5 14.625
    endloop
  endfacet
  facet normal 0.707107 -0 0.707107
    outer loop
      vertex -3.24759 -1.5 14.625
      vertex -1.875 0 13.2524
      vertex -3.24759 0 14.625
    endloop
  endfacet
  facet normal 0.707107 0 0.707107
    outer loop
      vertex -1.875 0 13.2524
      vertex -3.24759 -1.5 14.625
      vertex -1.875 -1.5 13.2524
    endloop
  endfacet
  facet normal -0.258819 0 -0.965926
    outer loop
      vertex 0 -1.5 20.25
      vertex 1.875 0 19.7476
      vertex 1.875 -1.5 19.7476
    endloop
  endfacet
  facet normal -0.258819 0 -0.965926
    outer loop
      vertex 1.875 0 19.7476
      vertex 0 -1.5 20.25
      vertex 0 0 20.25
    endloop
  endfacet
  facet normal 0.965926 0 -0.258819
    outer loop
      vertex -3.24759 -1.5 18.375
      vertex -3.75 0 16.5
      vertex -3.24759 0 18.375
    endloop
  endfacet
  facet normal 0.965926 0 -0.258819
    outer loop
      vertex -3.75 0 16.5
      vertex -3.24759 -1.5 18.375
      vertex -3.75 -1.5 16.5
    endloop
  endfacet
  facet normal -0.258819 0 0.965926
    outer loop
      vertex 0 0 12.75
      vertex 1.875 -1.5 13.2524
      vertex 1.875 0 13.2524
    endloop
  endfacet
  facet normal -0.258819 0 0.965926
    outer loop
      vertex 1.875 -1.5 13.2524
      vertex 0 0 12.75
      vertex 0 -1.5 12.75
    endloop
  endfacet
  facet normal 0.707107 0 -0.707107
    outer loop
      vertex -1.875 -1.5 19.7476
      vertex -3.24759 0 18.375
      vertex -1.875 0 19.7476
    endloop
  endfacet
  facet normal 0.707107 0 -0.707107
    outer loop
      vertex -3.24759 0 18.375
      vertex -1.875 -1.5 19.7476
      vertex -3.24759 -1.5 18.375
    endloop
  endfacet
  facet normal -0.707107 0 -0.707107
    outer loop
      vertex 3.24759 -1.5 18.375
      vertex 1.875 0 19.7476
      vertex 3.24759 0 18.375
    endloop
  endfacet
  facet normal -0.707107 -0 -0.707107
    outer loop
      vertex 1.875 0 19.7476
      vertex 3.24759 -1.5 18.375
      vertex 1.875 -1.5 19.7476
    endloop
  endfacet
  facet normal -0.965926 0 -0.258819
    outer loop
      vertex 3.75 -1.5 16.5
      vertex 3.24759 0 18.375
      vertex 3.75 0 16.5
    endloop
  endfacet
  facet normal -0.965926 -0 -0.258819
    outer loop
      vertex 3.24759 0 18.375
      vertex 3.75 -1.5 16.5
      vertex 3.24759 -1.5 18.375
    endloop
  endfacet
  facet normal 0.258819 0 -0.965926
    outer loop
      vertex -1.875 -1.5 19.7476
      vertex 0 0 20.25
      vertex 0 -1.5 20.25
    endloop
  endfacet
  facet normal 0.258819 0 -0.965926
    outer loop
      vertex 0 0 20.25
      vertex -1.875 -1.5 19.7476
      vertex -1.875 0 19.7476
    endloop
  endfacet
  facet normal -0.866025 -0.5 0
    outer loop
      vertex 24.25 -8 0
      vertex 23.375 -6.48446 4
      vertex 23.375 -6.48446 0
    endloop
  endfacet
  facet normal -0.866025 -0.5 0
    outer loop
      vertex 23.375 -6.48446 4
      vertex 24.25 -8 0
      vertex 24.25 -8 4
    endloop
  endfacet
  facet normal 0 1 -0
    outer loop
      vertex 23.375 -9.51554 0
      vertex 21.625 -9.51554 4
      vertex 23.375 -9.51554 4
    endloop
  endfacet
  facet normal 0 1 0
    outer loop
      vertex 21.625 -9.51554 4
      vertex 23.375 -9.51554 0
      vertex 21.625 -9.51554 0
    endloop
  endfacet
  facet normal 0.866025 -0.5 0
    outer loop
      vertex 20.75 -8 4
      vertex 21.625 -6.48446 0
      vertex 21.625 -6.48446 4
    endloop
  endfacet
  facet normal 0.866025 -0.5 0
    outer loop
      vertex 21.625 -6.48446 0
      vertex 20.75 -8 4
      vertex 20.75 -8 0
    endloop
  endfacet
  facet normal 0 -1 0
    outer loop
      vertex 21.625 -6.48446 0
      vertex 23.375 -6.48446 4
      vertex 21.625 -6.48446 4
    endloop
  endfacet
  facet normal 0 -1 -0
    outer loop
      vertex 23.375 -6.48446 4
      vertex 21.625 -6.48446 0
      vertex 23.375 -6.48446 0
    endloop
  endfacet
  facet normal 0.866025 0.5 0
    outer loop
      vertex 21.625 -9.51554 4
      vertex 20.75 -8 0
      vertex 20.75 -8 4
    endloop
  endfacet
  facet normal 0.866025 0.5 0
    outer loop
      vertex 20.75 -8 0
      vertex 21.625 -9.51554 4
      vertex 21.625 -9.51554 0
    endloop
  endfacet
  facet normal -0.866025 0.5 0
    outer loop
      vertex 23.375 -9.51554 0
      vertex 24.25 -8 4
      vertex 24.25 -8 0
    endloop
  endfacet
  facet normal -0.866025 0.5 0
    outer loop
      vertex 24.25 -8 4
      vertex 23.375 -9.51554 0
      vertex 23.375 -9.51554 4
    endloop
  endfacet
  facet normal -0.866025 -0.5 0
    outer loop
      vertex -20.75 -8 0
      vertex -21.625 -6.48446 4
      vertex -21.625 -6.48446 0
    endloop
  endfacet
  facet normal -0.866025 -0.5 0
    outer loop
      vertex -21.625 -6.48446 4
      vertex -20.75 -8 0
      vertex -20.75 -8 4
    endloop
  endfacet
  facet normal 0 1 -0
    outer loop
      vertex -21.625 -9.51554 0
      vertex -23.375 -9.51554 4
      vertex -21.625 -9.51554 4
    endloop
  endfacet
  facet normal 0 1 0
    outer loop
      vertex -23.375 -9.51554 4
      vertex -21.625 -9.51554 0
      vertex -23.375 -9.51554 0
    endloop
  endfacet
  facet normal 0.866025 -0.5 0
    outer loop
      vertex -24.25 -8 4
      vertex -23.375 -6.48446 0
      vertex -23.375 -6.48446 4
    endloop
  endfacet
  facet normal 0.866025 -0.5 0
    outer loop
      vertex -23.375 -6.48446 0
      vertex -24.25 -8 4
      vertex -24.25 -8 0
    endloop
  endfacet
  facet normal 0 -1 0
    outer loop
      vertex -23.375 -6.48446 0
      vertex -21.625 -6.48446 4
      vertex -23.375 -6.48446 4
    endloop
  endfacet
  facet normal 0 -1 -0
    outer loop
      vertex -21.625 -6.48446 4
      vertex -23.375 -6.48446 0
      vertex -21.625 -6.48446 0
    endloop
  endfacet
  facet normal 0.866025 0.5 0
    outer loop
      vertex -23.375 -9.51554 4
      vertex -24.25 -8 0
      vertex -24.25 -8 4
    endloop
  endfacet
  facet normal 0.866025 0.5 0
    outer loop
      vertex -24.25 -8 0
      vertex -23.375 -9.51554 4
      vertex -23.375 -9.51554 0
    endloop
  endfacet
  facet normal -0.866025 0.5 0
    outer loop
      vertex -21.625 -9.51554 0
      vertex -20.75 -8 4
      vertex -20.75 -8 0
    endloop
  endfacet
  facet normal -0.866025 0.5 0
    outer loop
      vertex -20.75 -8 4
      vertex -21.625 -9.51554 0
      vertex -21.625 -9.51554 4
    endloop
  endfacet
  facet normal -0.866025 0 0.5
    outer loop
      vertex 9.375 -1.5 14.9845
      vertex 10.25 0 16.5
      vertex 9.375 0 14.9845
    endloop
  endfacet
  facet normal -0.866025 0 0.5
    outer loop
      vertex 10.25 0 16.5
      vertex 9.375 -1.5 14.9845
      vertex 10.25 -1.5 16.5
    endloop
  endfacet
  facet normal -0 0 1
    outer loop
      vertex 7.625 0 14.9845
      vertex 9.375 -1.5 14.9845
      vertex 9.375 0 14.9845
    endloop
  endfacet
  facet normal 0 0 1
    outer loop
      vertex 9.375 -1.5 14.9845
      vertex 7.625 0 14.9845
      vertex 7.625 -1.5 14.9845
    endloop
  endfacet
  facet normal 0 0 -1
    outer loop
      vertex 7.625 -1.5 18.0155
      vertex 9.375 0 18.0155
      vertex 9.375 -1.5 18.0155
    endloop
  endfacet
  facet normal -0 0 -1
    outer loop
      vertex 9.375 0 18.0155
      vertex 7.625 -1.5 18.0155
      vertex 7.625 0 18.0155
    endloop
  endfacet
  facet normal 0.866025 -0 0.5
    outer loop
      vertex 6.75 -1.5 16.5
      vertex 7.625 0 14.9845
      vertex 6.75 0 16.5
    endloop
  endfacet
  facet normal 0.866025 0 0.5
    outer loop
      vertex 7.625 0 14.9845
      vertex 6.75 -1.5 16.5
      vertex 7.625 -1.5 14.9845
    endloop
  endfacet
  facet normal -0.866025 0 -0.5
    outer loop
      vertex 10.25 -1.5 16.5
      vertex 9.375 0 18.0155
      vertex 10.25 0 16.5
    endloop
  endfacet
  facet normal -0.866025 -0 -0.5
    outer loop
      vertex 9.375 0 18.0155
      vertex 10.25 -1.5 16.5
      vertex 9.375 -1.5 18.0155
    endloop
  endfacet
  facet normal 0.866026 0 -0.499999
    outer loop
      vertex 7.625 -1.5 18.0155
      vertex 6.75 0 16.5
      vertex 7.625 0 18.0155
    endloop
  endfacet
  facet normal 0.866026 0 -0.499999
    outer loop
      vertex 6.75 0 16.5
      vertex 7.625 -1.5 18.0155
      vertex 6.75 -1.5 16.5
    endloop
  endfacet
  facet normal -0.866025 0 0.5
    outer loop
      vertex -7.625 -1.5 14.9845
      vertex -6.75 0 16.5
      vertex -7.625 0 14.9845
    endloop
  endfacet
  facet normal -0.866025 0 0.5
    outer loop
      vertex -6.75 0 16.5
      vertex -7.625 -1.5 14.9845
      vertex -6.75 -1.5 16.5
    endloop
  endfacet
  facet normal 0.866025 -0 0.5
    outer loop
      vertex -10.25 -1.5 16.5
      vertex -9.375 0 14.9845
      vertex -10.25 0 16.5
    endloop
  endfacet
  facet normal 0.866025 0 0.5
    outer loop
      vertex -9.375 0 14.9845
      vertex -10.25 -1.5 16.5
      vertex -9.375 -1.5 14.9845
    endloop
  endfacet
  facet normal -0 0 1
    outer loop
      vertex -9.375 0 14.9845
      vertex -7.625 -1.5 14.9845
      vertex -7.625 0 14.9845
    endloop
  endfacet
  facet normal 0 0 1
    outer loop
      vertex -7.625 -1.5 14.9845
      vertex -9.375 0 14.9845
      vertex -9.375 -1.5 14.9845
    endloop
  endfacet
  facet normal 0.866025 0 -0.5
    outer loop
      vertex -9.375 -1.5 18.0155
      vertex -10.25 0 16.5
      vertex -9.375 0 18.0155
    endloop
  endfacet
  facet normal 0.866025 0 -0.5
    outer loop
      vertex -10.25 0 16.5
      vertex -9.375 -1.5 18.0155
      vertex -10.25 -1.5 16.5
    endloop
  endfacet
  facet normal -0.866025 0 -0.5
    outer loop
      vertex -6.75 -1.5 16.5
      vertex -7.625 0 18.0155
      vertex -6.75 0 16.5
    endloop
  endfacet
  facet normal -0.866025 -0 -0.5
    outer loop
      vertex -7.625 0 18.0155
      vertex -6.75 -1.5 16.5
      vertex -7.625 -1.5 18.0155
    endloop
  endfacet
  facet normal 0 0 -1
    outer loop
      vertex -9.375 -1.5 18.0155
      vertex -7.625 0 18.0155
      vertex -7.625 -1.5 18.0155
    endloop
  endfacet
  facet normal -0 0 -1
    outer loop
      vertex -7.625 0 18.0155
      vertex -9.375 -1.5 18.0155
      vertex -9.375 0 18.0155
    endloop
  endfacet
endsolid OpenSCAD_Model
